Coordinates
version=1
nRows=5
nColumns=41
inDegrees=yes

Units are S.I. units (second, meters, Newtons, ...)
If the header above contains a line with 'inDegrees', this indicates whether rotational values are in degrees (yes) or radians (no).

endheader
time	pelvis_tilt	pelvis_list	pelvis_rotation	pelvis_tx	pelvis_ty	pelvis_tz	hip_flexion_r	hip_adduction_r	hip_rotation_r	knee_angle_r	ankle_angle_r	subtalar_angle_r	mtp_angle_r	hip_flexion_l	hip_adduction_l	hip_rotation_l	knee_angle_l	ankle_angle_l	subtalar_angle_l	mtp_angle_l	L5_S1_Flex_Ext	L5_S1_Lat_Bending	L5_S1_axial_rotation	neck_flexion	neck_bending	neck_rotation	arm_flex_r	arm_add_r	arm_rot_r	elbow_flex_r	pro_sup_r	wrist_flex_r	wrist_dev_r	arm_flex_l	arm_add_l	arm_rot_l	elbow_flex_l	pro_sup_l	wrist_flex_l	wrist_dev_l
      0.00000000	     -3.69989018	      3.79874106	    -83.10604419	      0.13710759	      1.06056377	      0.02444729	      4.61668988	      2.23696572	      0.70865452	      6.22462936	      8.70416068	    -12.57735494	      0.00000000	      3.67204204	     -4.59270344	     -6.15450539	      4.70487387	      9.69057854	     -4.55038334	      0.00000000	     -0.03882982	      1.69034725	      1.00203642	      0.00000000	      0.00000000	      0.00000002	     -1.51284591	    -14.51073504	     10.51502500	     18.94670589	     74.80908835	      0.00000000	      0.00000000	     -1.41720456	    -16.04469505	     17.63131174	     20.43731661	     75.54451423	      0.00000000	      0.00000000
      0.02000000	     -2.40024373	      3.88944879	    -83.84338890	      0.13617375	      1.05955223	      0.02122759	      4.19258032	      0.70752571	     -0.56554073	      5.18584261	     11.26926044	     -8.41038292	      0.00000000	      2.82974281	     -3.22570032	     -6.40463013	      3.07973032	     10.84513431	     -3.66853909	      0.00000000	     -0.03727305	      0.37403042	      1.18301219	      0.00000000	      0.00000000	      0.00000002	     -0.66988366	    -13.49291234	      6.44412420	     16.34467101	     73.16082505	      0.00000000	      0.00000000	     -1.13859669	    -15.40487091	     10.46121622	     19.71850294	     73.17181241	      0.00000000	      0.00000000
      0.04000000	     -1.99389981	      4.09481127	    -84.46711310	      0.13676284	      1.05977316	      0.01952250	      4.15695897	      0.08726980	     -0.01242607	      4.22487485	     10.04947501	     -9.42196775	      0.00000000	      2.33928966	     -2.66622540	     -4.93026230	      2.14620641	      9.89567159	     -5.72634672	      0.00000000	     -0.03054803	      0.10937185	      0.72903323	      0.00000000	      0.00000000	      0.00000002	     -0.10910988	    -13.52075441	      4.28066264	     17.54446117	     73.03501309	      0.00000000	      0.00000000	     -1.45585086	    -14.83529309	      5.81006217	     18.86930290	     72.21182154	      0.00000000	      0.00000000
      0.06000000	     -2.19471556	      4.09650174	    -84.87073337	      0.13693439	      1.06003722	      0.01828976	      3.95261942	      0.25582839	     -0.14145630	      3.19802198	      9.19705955	     -9.22848589	      0.00000000	      1.84261199	     -2.86035755	     -4.10658040	      1.26489697	      9.40436001	     -5.60701623	      0.00000000	     -0.03457914	      0.49234079	      0.83942927	      0.00000000	      0.00000000	      0.00000002	      0.29561160	    -13.75107091	      4.01915433	     17.66934028	     73.07561848	      0.00000000	      0.00000000	     -1.63778815	    -14.75468172	      5.46693976	     18.92058526	     72.18077688	      0.00000000	      0.00000000
      0.08000000	     -2.39666959	      4.28129043	    -84.97967162	      0.13732563	      1.05990236	      0.01781760	      4.05024622	      0.37792244	      0.14962529	      2.61081016	      8.28179925	    -10.31016864	      0.00000000	      1.76568335	     -3.02567766	     -2.53578142	      0.89392296	      8.67665502	     -7.07102527	      0.00000000	     -0.03896035	      0.75378888	      0.44997424	      0.00000000	      0.00000000	      0.00000002	      0.61267487	    -13.84035403	      3.08656836	     18.33194073	     73.41362959	      0.00000000	      0.00000000	     -1.78058062	    -14.68662700	      3.90977669	     18.98845108	     71.98825579	      0.00000000	      0.00000000
